<svg xmlns="http://www.w3.org/2000/svg" viewBox="0 0 16 16" shape-rendering="crispEdges" role="img"><defs><linearGradient id="g_app" x1="0" y1="0" x2="1" y2="1"><stop offset="0" stop-color="#2a1a0a"/><stop offset="1" stop-color="#4a2c10"/></linearGradient></defs><rect width="16" height="16" fill="url(#g_app)"/><rect x="2" y="4" width="4" height="1" fill="#fff3e6"/><rect x="8" y="4" width="2" height="1" fill="#f0a050"/><rect x="13" y="4" width="1" height="1" fill="#f0a050"/><rect x="1" y="5" width="1" height="1" fill="#fff3e6"/><rect x="5" y="5" width="1" height="1" fill="#fff3e6"/><rect x="8" y="5" width="2" height="1" fill="#f0a050"/><rect x="12" y="5" width="1" height="1" fill="#f0a050"/><rect x="5" y="6" width="1" height="1" fill="#fff3e6"/><rect x="11" y="6" width="1" height="1" fill="#f0a050"/><rect x="4" y="7" width="1" height="1" fill="#fff3e6"/><rect x="10" y="7" width="1" height="1" fill="#f0a050"/><rect x="3" y="8" width="1" height="1" fill="#fff3e6"/><rect x="9" y="8" width="1" height="1" fill="#f0a050"/><rect x="12" y="8" width="2" height="1" fill="#f0a050"/><rect x="2" y="9" width="1" height="1" fill="#fff3e6"/><rect x="8" y="9" width="1" height="1" fill="#f0a050"/><rect x="12" y="9" width="2" height="1" fill="#f0a050"/><rect x="1" y="10" width="5" height="1" fill="#fff3e6"/><rect x="2" y="13" width="12" height="1" fill="#f0a050"/></svg>